<svg height="900" width="1520" xmlns="http://www.w3.org/2000/svg"><path d="m63.02 123.4h411.39v640.28h-411.39zm0 0" fill="#0f7878" stroke="#6a006c" stroke-linecap="round" stroke-linejoin="round"/><text fill="#fff" font-family="Source Sans Pro" font-size="30" font-weight="bold" x="170.72" y="166.71">data.lsst.cloud</text><path d="m474.41 123.4h387.44v281.16h-387.44zm0 0" fill="#0f7878" stroke="#6a006c" stroke-linecap="round" stroke-linejoin="round"/><text fill="#fff" font-family="Source Sans Pro" font-size="30" font-weight="bold" x="516.12" y="166.71">USDAC @ Google Cloud</text><path d="m1031.15 123.4h411.39v640.28h-411.39zm0 0" fill="#575b5a" stroke="#6a006c" stroke-linecap="round" stroke-linejoin="round"/><text fill="#fff" font-family="Source Sans Pro" font-size="30" font-weight="bold" x="1139.39" y="166.71">USDAC @ SLAC</text><path d="m185.17 405.46c-21.02 0-38.06-17.04-38.06-38.06v-26.23c0-21.02 17.04-38.06 38.06-38.06h177.62c21.03 0 38.07 17.04 38.07 38.06v26.23c0 21.02-17.04 38.06-38.07 38.06zm0 0" fill="#302d43" stroke="#6a006c" stroke-linecap="round" stroke-linejoin="round"/><text fill="#fff" font-family="Source Sans Pro" font-size="17" x="220.88" y="350.65">Image Services</text><text fill="#fff" font-family="Source Sans Pro" font-size="17" x="207.18" y="377.65">SIA, Cutout, Butler, HIPS</text><path d="m1211.8 303.11c-15.99 0-28.95-10.14-28.95-22.66 0-12.51 12.96-22.66 28.95-22.66h135.08c15.98 0 28.94 10.15 28.94 22.66 0 12.52-12.96 22.66-28.94 22.66zm0 0" fill="#f90" stroke="#6a006c" stroke-linecap="round" stroke-linejoin="round"/><text font-family="Source Sans Pro" font-size="20" x="1223.26" y="290.49">DP0.2 images</text><path d="m1066.99 730.37c-8.34 0-15.1-6.76-15.1-15.1v-196.19c0-8.33 6.76-15.09 15.1-15.09h70.46c8.33 0 15.09 6.76 15.09 15.09v196.19c0 8.34-6.76 15.1-15.09 15.1zm0 0" fill="#e5333c" stroke="#6a006c" stroke-linecap="round" stroke-linejoin="round"/><text fill="#fff" font-family="Source Sans Pro" font-size="20" x="1074.08" y="611.72">QSERV</text><text fill="#fff" font-family="Source Sans Pro" font-size="20" x="1063.98" y="642.72">database</text><path d="m1211.8 367.43c-15.99 0-28.95-10.15-28.95-22.66 0-12.52 12.96-22.66 28.95-22.66h135.08c15.98 0 28.94 10.14 28.94 22.66 0 12.51-12.96 22.66-28.94 22.66zm0 0" fill="#f90" stroke="#6a006c" stroke-linecap="round" stroke-linejoin="round"/><text font-family="Source Sans Pro" font-size="20" x="1223.26" y="354.81">DP0.3 images</text><path d="m1211.8 553.57c-15.99 0-28.95-10.14-28.95-22.65 0-12.52 12.96-22.66 28.95-22.66h135.08c15.98 0 28.94 10.14 28.94 22.66 0 12.51-12.96 22.65-28.94 22.65zm0 0" fill="#f90" stroke="#6a006c" stroke-linecap="round" stroke-linejoin="round"/><text font-family="Source Sans Pro" font-size="20" x="1225.79" y="540.96">DP1 catalogs</text><path d="m1066.99 472.34c-8.34 0-15.1-6.76-15.1-15.1v-27.4c0-8.34 6.76-15.1 15.1-15.1h70.46c8.33 0 15.09 6.76 15.09 15.1v27.4c0 8.34-6.76 15.1-15.09 15.1zm0 0" fill="#e5333c" stroke="#6a006c" stroke-linecap="round" stroke-linejoin="round"/><text fill="#fff" font-family="Source Sans Pro" font-size="20" x="1066.42" y="453.58">postgres</text><path d="m1211.8 622.32c-15.99 0-28.95-10.14-28.95-22.65 0-12.52 12.96-22.66 28.95-22.66h135.08c15.98 0 28.94 10.14 28.94 22.66 0 12.51-12.96 22.65-28.94 22.65zm0 0" fill="#f90" stroke="#6a006c" stroke-linecap="round" stroke-linejoin="round"/><text font-family="Source Sans Pro" font-size="20" x="1218.33" y="609.71">DP0.2 catalogs</text><path d="m1211.8 691.07c-15.99 0-28.95-10.14-28.95-22.65 0-12.52 12.96-22.66 28.95-22.66h135.08c15.98 0 28.94 10.14 28.94 22.66 0 12.51-12.96 22.65-28.94 22.65zm0 0" fill="#f90" stroke="#6a006c" stroke-linecap="round" stroke-linejoin="round"/><text font-family="Source Sans Pro" font-size="20" x="1211.28" y="678.46">OBSTAP schema</text><path d="m1211.8 466.2c-15.99 0-28.95-10.15-28.95-22.66 0-12.51 12.96-22.66 28.95-22.66h135.08c15.98 0 28.94 10.15 28.94 22.66 0 12.51-12.96 22.66-28.94 22.66zm0 0" fill="#f90" stroke="#6a006c" stroke-linecap="round" stroke-linejoin="round"/><text font-family="Source Sans Pro" font-size="20" x="1218.33" y="453.58">DP0.3 catalogs</text><path d="m565.26 303.11c-15.99 0-28.95-10.14-28.95-22.66 0-12.51 12.96-22.66 28.95-22.66h135.08c15.99 0 28.95 10.15 28.95 22.66 0 12.52-12.96 22.66-28.95 22.66zm0 0" fill="#f90" stroke="#6a006c" stroke-linecap="round" stroke-linejoin="round"/><text font-family="Source Sans Pro" font-size="20" x="584.18" y="290.49">DP1 images</text><g stroke-linecap="round" stroke-linejoin="round"><path d="m400.86 379.87h390.99v-35.1h372.4" fill="none" stroke="#f90" stroke-width="2"/><path d="m1164.25 344.77h1.7m0 3.59v-7.18l16.9 3.59zm0 0" stroke="#f90" stroke-width="2"/><path d="m400.86 379.87h390.99v-99.42h372.4" fill="none" stroke="#f90" stroke-width="2"/><path d="m1164.25 280.45h1.7m0 3.6v-7.19l16.9 3.59zm0 0" stroke="#f90" stroke-width="2"/><path d="m400.86 328.7h67.73v-48.25h49.12" fill="none" stroke="#f90" stroke-width="2"/><path d="m517.71 280.45h1.7m0 3.6v-7.19l16.9 3.59zm0 0" stroke="#f90" stroke-width="2"/><path d="m185.17 553.57c-21.02 0-38.06-17.04-38.06-38.06v-26.22c0-21.02 17.04-38.06 38.06-38.06h177.62c21.03 0 38.07 17.04 38.07 38.06v26.22c0 21.02-17.04 38.06-38.07 38.06zm0 0" fill="#302d43" stroke="#6a006c"/></g><text fill="#fff" font-family="Source Sans Pro" font-size="20" x="205.5" y="499.94">Catalog Services</text><text fill="#fff" font-family="Source Sans Pro" font-size="20" x="257.92" y="530.94">TAP</text><path d="m400.86 502.4h325.51v-58.86h306.92" fill="none" stroke="#f90" stroke-linecap="round" stroke-linejoin="round" stroke-width="2"/><path d="m1033.29 443.54h1.7m0 3.59v-7.18l16.9 3.59zm0 0" stroke="#f90" stroke-linecap="round" stroke-linejoin="round" stroke-width="2"/><path d="m400.86 502.4h325.51v58.18h306.92" fill="none" stroke="#f90" stroke-linecap="round" stroke-linejoin="round" stroke-width="2"/><path d="m1033.29 560.58h1.7m0 3.59v-7.18l16.9 3.59zm0 0" stroke="#f90" stroke-linecap="round" stroke-linejoin="round" stroke-width="2"/><path d="m187.25 691.07c-21.02 0-38.06-17.04-38.06-38.06v-26.22c0-21.02 17.04-38.06 38.06-38.06h177.63c21.02 0 38.06 17.04 38.06 38.06v26.22c0 21.02-17.04 38.06-38.06 38.06zm0 0" fill="#302d43" stroke="#6a006c" stroke-linecap="round" stroke-linejoin="round"/><text fill="#fff" font-family="Source Sans Pro" font-size="20" x="242.48" y="634.44">OBSTAP</text><text fill="#fff" font-family="Source Sans Pro" font-size="20" x="220.99" y="665.44">image search</text><path d="m402.94 639.9h324.47v33.88h305.88" fill="none" stroke="#f90" stroke-linecap="round" stroke-linejoin="round" stroke-width="2"/><path d="m1033.29 673.78h1.7m0 3.59v-7.19l16.9 3.6zm0 0" stroke="#f90" stroke-linecap="round" stroke-linejoin="round" stroke-width="2"/><path d="m185.05 268.59c-19.8 0-35.86-16.05-35.86-35.86v-2.85c0-19.8 16.06-35.86 35.86-35.86h167.33c19.81 0 35.86 16.06 35.86 35.86v2.85c0 19.81-16.05 35.86-35.86 35.86zm0 0" fill="#302d43" stroke="#6a006c" stroke-linecap="round" stroke-linejoin="round"/><text fill="#fff" font-family="Source Sans Pro" font-size="20" x="235.56" y="225.85">Portal &amp;</text><text fill="#fff" font-family="Source Sans Pro" font-size="20" x="227.48" y="256.85">Notebook</text><path d="m149.19 231.31h-45.08v122.98h24.4" fill="none" stroke="#f90" stroke-linecap="round" stroke-linejoin="round" stroke-width="2"/><path d="m128.51 354.29h1.7m0 3.59v-7.19l16.9 3.6zm0 0" stroke="#f90" stroke-linecap="round" stroke-linejoin="round" stroke-width="2"/><path d="m149.19 231.31h-48.08v271.09h27.4" fill="none" stroke="#f90" stroke-linecap="round" stroke-linejoin="round" stroke-width="2"/><path d="m128.51 502.4h1.7m0 3.59v-7.18l16.9 3.59zm0 0" stroke="#f90" stroke-linecap="round" stroke-linejoin="round" stroke-width="2"/><path d="m149.19 231.31h-40.08c0-2.76-2.24-5-5-5h-3c-2.76 0-5 2.24-5 5h-1.92v408.59h36.4" fill="none" stroke="#f90" stroke-linecap="round" stroke-linejoin="round" stroke-width="2"/><path d="m130.59 639.9h1.7m0 3.59v-7.18l16.9 3.59zm0 0" stroke="#f90" stroke-linecap="round" stroke-linejoin="round" stroke-width="2"/><path d="m565.26 239.34c-15.99 0-28.95-10.14-28.95-22.66 0-12.51 12.96-22.66 28.95-22.66h135.08c15.99 0 28.95 10.15 28.95 22.66 0 12.52-12.96 22.66-28.95 22.66zm0 0" fill="#f90" stroke="#6a006c" stroke-linecap="round" stroke-linejoin="round"/><text font-family="Source Sans Pro" font-size="20" x="580.99" y="226.72">User storage</text><path d="m388.24 231.31h74.04v-14.63h55.43" fill="none" stroke="#f90" stroke-linecap="round" stroke-linejoin="round" stroke-width="2"/><path d="m517.71 216.68h1.7m0 3.6v-7.19l16.9 3.59zm0 0" stroke="#f90" stroke-linecap="round" stroke-linejoin="round" stroke-width="2"/></svg>